<?xml version="1.0" encoding="utf-8"?>
<!-- Generator: Adobe Illustrator 16.0.4, SVG Export Plug-In . SVG Version: 6.00 Build 0)  -->
<!DOCTYPE svg PUBLIC "-//W3C//DTD SVG 1.1//EN" "http://www.w3.org/Graphics/SVG/1.1/DTD/svg11.dtd">
<svg version="1.1" id="sdk-icon" xmlns="http://www.w3.org/2000/svg" xmlns:xlink="http://www.w3.org/1999/xlink" x="0px" y="0px"
	 width="150px" height="150px" viewBox="0 0 150 150" enable-background="new 0 0 150 150" xml:space="preserve">
<g>
	<path fill="#231F20" d="M85.333,43.294c0-0.002-0.001-0.003-0.001-0.005v-9.392c0-5.732-4.664-10.396-10.396-10.396H29.834
		c-5.732,0-10.396,4.664-10.396,10.396v90.207c0,5.732,4.664,10.396,10.396,10.396h45.103c2.767,0,5.375-1.084,7.343-3.053
		s3.053-4.576,3.052-7.343v-9.393c0-0.002,0.001-0.003,0.001-0.005s-0.001-0.003-0.001-0.005V43.299
		C85.332,43.297,85.333,43.296,85.333,43.294z M21.438,44.294h61.894l0.001,69.412H21.438V44.294z M29.834,25.501h45.102
		c4.629,0,8.396,3.767,8.396,8.396v8.397H21.438v-8.397C21.438,29.268,25.205,25.501,29.834,25.501z M74.937,132.499H29.834
		c-4.629,0-8.396-3.767-8.396-8.396v-8.397h61.895v8.397C83.333,128.732,79.566,132.499,74.937,132.499z"/>
	<path fill="#231F20" d="M39.231,36.777h26.31c0.552,0,1-0.448,1-1s-0.448-1-1-1h-26.31c-0.552,0-1,0.448-1,1
		S38.679,36.777,39.231,36.777z"/>
	<path fill="#231F20" d="M52.385,118.348c-3.174,0-5.756,2.582-5.756,5.756s2.582,5.756,5.756,5.756s5.756-2.582,5.756-5.756
		S55.559,118.348,52.385,118.348z M52.385,127.859c-2.071,0-3.756-1.685-3.756-3.756s1.685-3.756,3.756-3.756
		c2.071,0,3.756,1.685,3.756,3.756S54.456,127.859,52.385,127.859z"/>
	<path fill="#231F20" d="M100.551,63.082c-0.391,0.391-0.391,1.024,0,1.415c2.564,2.563,5.161,7.827,5.161,12.927
		c0,5.097-2.597,10.361-5.161,12.928c-0.391,0.391-0.391,1.024,0,1.414c0.195,0.195,0.451,0.293,0.707,0.293
		s0.512-0.098,0.707-0.293c2.769-2.77,5.747-8.439,5.747-14.342c0-5.907-2.979-11.576-5.747-14.342
		C101.574,62.692,100.941,62.691,100.551,63.082z"/>
	<path fill="#231F20" d="M111.458,54.901c-0.391,0.391-0.391,1.023,0,1.414c4.995,4.996,7.888,10.051,7.888,21.109
		c0,11.056-2.893,16.112-7.888,21.108c-0.391,0.391-0.391,1.023,0,1.414c0.195,0.195,0.451,0.293,0.707,0.293
		s0.512-0.098,0.707-0.293c5.231-5.232,8.474-10.825,8.474-22.522c0-11.699-3.242-17.292-8.474-22.523
		C112.481,54.51,111.849,54.51,111.458,54.901z"/>
	<path fill="#231F20" d="M123.78,46.72c-0.391-0.391-1.023-0.391-1.414,0c-0.391,0.39-0.391,1.023,0,1.414
		c7.837,7.838,10.614,15.503,10.614,29.29c0,13.786-2.777,21.45-10.614,29.289c-0.391,0.391-0.391,1.023,0,1.414
		c0.195,0.195,0.451,0.293,0.707,0.293s0.512-0.098,0.707-0.293c8.165-8.166,11.2-16.488,11.2-30.703
		C134.98,63.208,131.945,54.886,123.78,46.72z"/>
	<path fill="#231F20" d="M69.406,75.066h-4.042c-0.259-0.851-0.598-1.676-1.001-2.441l2.86-2.86
		c0.188-0.188,0.293-0.442,0.293-0.707s-0.105-0.52-0.293-0.707l-4.188-4.186c-0.391-0.391-1.023-0.391-1.414,0l-2.868,2.867
		c-0.801-0.406-1.727-0.773-2.433-1.004v-4.049c0-0.552-0.448-1-1-1h-5.869c-0.552,0-1,0.448-1,1v4.05
		c-0.709,0.23-1.626,0.59-2.435,1.001l-2.867-2.866c-0.391-0.391-1.023-0.391-1.414,0l-4.187,4.186
		c-0.188,0.188-0.293,0.442-0.293,0.707s0.105,0.52,0.293,0.707l2.869,2.869c-0.396,0.789-0.758,1.712-0.997,2.433h-4.057
		c-0.552,0-1,0.447-1,1v4.694c0,0.553,0.448,1,1,1h3.952c0.248,1.335,0.643,2.615,1.108,3.599l-2.876,2.877
		c-0.188,0.188-0.293,0.442-0.293,0.707c0,0.266,0.105,0.52,0.293,0.707l4.188,4.187c0.188,0.188,0.442,0.293,0.707,0.293h0
		c0.265,0,0.52-0.105,0.707-0.293l2.877-2.88c0.638,0.298,1.351,0.549,1.958,0.762c0.154,0.055,0.317,0.111,0.466,0.166v4.135
		c0,0.553,0.448,1,1,1h5.869c0.552,0,1-0.447,1-1v-4.136c0.152-0.056,0.319-0.114,0.477-0.169c0.603-0.212,1.312-0.461,1.945-0.757
		l2.88,2.879c0.391,0.391,1.023,0.391,1.414,0l4.186-4.187c0.391-0.391,0.391-1.023,0-1.414l-2.848-2.85
		c0.451-0.799,0.841-1.732,1.112-3.626h3.919c0.552,0,1-0.447,1-1v-4.694C70.406,75.514,69.958,75.066,69.406,75.066z
		 M68.406,79.761h-3.803c-0.511,0-0.94,0.386-0.994,0.894c-0.281,2.627-0.686,3.289-1.345,4.367
		c-0.241,0.395-0.18,0.901,0.146,1.229l2.691,2.693l-2.772,2.772l-2.694-2.692c-0.326-0.327-0.833-0.387-1.229-0.146
		c-0.583,0.356-1.52,0.686-2.273,0.95c-0.56,0.197-1.003,0.353-1.294,0.513c-0.32,0.176-0.519,0.512-0.519,0.877v3.803h-3.869
		v-3.803c0-0.366-0.2-0.703-0.521-0.878c-0.289-0.157-0.728-0.312-1.282-0.507c-0.757-0.266-1.699-0.598-2.285-0.956
		c-0.394-0.243-0.903-0.18-1.23,0.146l-2.691,2.694l-2.773-2.772l2.693-2.693c0.327-0.327,0.387-0.835,0.146-1.229
		c-0.58-0.948-1.123-2.715-1.349-4.395c-0.067-0.496-0.491-0.866-0.991-0.866h-3.804v-2.694h3.804c0.461,0,0.863-0.316,0.972-0.765
		c0.152-0.626,0.756-2.32,1.369-3.324c0.241-0.394,0.18-0.901-0.146-1.228l-2.692-2.692l2.773-2.772l2.692,2.691
		c0.326,0.326,0.834,0.388,1.228,0.146c0.987-0.603,2.64-1.218,3.3-1.361c0.46-0.1,0.789-0.507,0.789-0.978v-3.806h3.869v3.806
		c0,0.479,0.339,0.89,0.809,0.981c0.529,0.104,2.278,0.748,3.28,1.357c0.393,0.24,0.9,0.179,1.227-0.147l2.692-2.691l2.773,2.772
		l-2.69,2.691c-0.327,0.326-0.387,0.834-0.146,1.228c0.595,0.976,1.081,2.157,1.367,3.328c0.109,0.447,0.511,0.762,0.971,0.762
		h3.804V79.761z"/>
	<path fill="#231F20" d="M52.385,71.544c-4.111,0-7.456,3.345-7.456,7.456s3.345,7.456,7.456,7.456c4.111,0,7.456-3.345,7.456-7.456
		S56.496,71.544,52.385,71.544z M52.385,84.456c-3.008,0-5.456-2.447-5.456-5.456s2.447-5.456,5.456-5.456s5.456,2.447,5.456,5.456
		S55.393,84.456,52.385,84.456z"/>
</g>
</svg>
